/* XPM */
static char *aeda097db9434209f601f65ac20b4ca1PqCdoA37vVS4EwY9[] = {
/* columns rows colors chars-per-pixel */
"30 30 6 1 ",
"  c black",
". c gray11",
"X c #464646",
"o c #676767",
"O c #7E7E7E",
"+ c #2CFF26",
/* pixels */
"++XXXXoOooXXXXX..ooooo..XXXooo",
"X+XXXXXXOOoOOO++...oo..++o++oo",
"......oXOOooOOO++X....X++++ooo",
"Oooo....+++o++++OO++XX+OOooooo",
"OOooo..++++++ +++  + o++oooooo",
"oOOOOO++++     ++ ++  o+oooooo",
"OOooo++  ++    ++  ++  +ooooOO",
"OOOOO+o  ++   ++   ++  +ooOOOX",
"O+++++   ++    ++  ++ ++OOOOOX",
"++++XX   ++         + + OOoXX.",
"X+XXX                 +  XXX..",
"oooXX                    XX.+O",
"OOoX.                    ..++O",
"OoXX.                    .OOoo",
"OoX..                    OOooo",
"oXX.o                    Ooooo",
"oX++o                   OOOo+o",
"XX+.o                    O++oo",
"X++oo                    XOOOO",
"X+.oo                    XXXOO",
".+oOo                    ..XXX",
"o+OOo                    o.+.X",
"o+OXX                    oo+oo",
"OOOXo                    oo+oo",
"OoX..                   OO++oo",
"oXX..                    O+OOo",
"XX..XXXXXXOooooooOO.XOOo..OOOO",
"XX..X++++OooooOoo+++++XOO....X",
"X..oXXoOOOOOOooo++OO..XXOO...X",
"...XOOoOoooooooooooOO..XXXOO.X"
};
