/* XPM */
static char *_83ba71d833247c69926c1e1120976aa4jERQuTWgbSUXvmx[] = {
/* columns rows colors chars-per-pixel */
"30 30 2 1 ",
"  c #168F13",
". c #4CFB48",
/* pixels */
" ...... ............ .........",
".. ..  ..  ..... ..  .  .. . .",
". .. .. .. .. .... ..... . ...",
"...... . ... . ... . .. ..... ",
" ..... ... ...................",
"... . ... ..... . .........   ",
".. . ... . ............... ...",
"..  ..........   ..  .. . ... ",
" ....... ............. ... . .",
"... . ....... ....... ........",
" . . . .....  .......... .....",
". ... ...  .......  ... . . ..",
" ............. . .... ......  ",
" .. ... . .. .................",
".. .... ......  .... ........ ",
".. .. . ........... ... ... . ",
"..... . ... ............... ..",
" ..  ..... .......  . ...  ...",
".............. .............. ",
".. ........ ...   ... .. .....",
". ... . . .. ...... ..  ..... ",
".......... .... .  .... .... .",
"..... ... . .. . .......... . ",
".... ... . .......... .. . . .",
"... ... . ... ........... . . ",
"...... ........... .  ....   .",
"..........  ....  ..... . . ..",
" . ..... . ..... ..... .......",
".  .. . . ... . ... . ... ... ",
" . . . . .. ...... . ... ... ."
};
