/* XPM */
static char *result[] = {
/* columns rows colors chars-per-pixel */
"30 30 3 1 ",
"  c black",
". c white",
"X c None",
/* pixels */
"XXXXXXXXXXXXXXXXXXXXXXXXXXXXXX",
"XXXXXXXXXXXXXXXXX         XXXX",
"XXXXXXXXXXXXXXXX  .......  XXX",
"XXXXXXXXXXXXXXX  .........  XX",
"XXXXXXXXXXXXXXX ........... XX",
"XXXXXXXXXXXXXXX ..  ...  .. XX",
"XXXXXXXXXXXXXXX ..  ...  .. XX",
"XXXXXXXXXXXXXXX ........... XX",
"XXXXXXXXXXXXXXX  .........  XX",
"XXXXXXXXXXXXXXXX  .......  XXX",
"XXXXXXXXXXXXXXXXX  .....  XXXX",
"XXXXXXXXXXXXXXXXXX . . . XXXXX",
"XXXXXXXXXXXXXXXXXX . . . XXXXX",
"XXXXXXXXXXXXXXXXXX       XXXXX",
"XXXXXXXXXXXXXXXXXXXXXXXXXXXXXX",
"XXXXXXXXXXXXXXXXXXXXXXXXXXXXXX",
"XXXXXXXXXXXXXXXXXXXXXXXXXXXXXX",
"XXXXXXXXXXXXXXXXXXXXXXXXXXXXXX",
"XXXXXX                  XXXXXX",
"XXXXX                    XXXXX",
"XXXX                      XXXX",
"XXX                        XXX",
"XX      ..          ..      XX",
"XX      ..          ..      XX",
"XX    ......      ......    XX",
"XX    ......      ......    XX",
"XX      ..          ..      XX",
"XXXX    ..          ..    XXXX",
"XXXXX                    XXXXX",
"XXXXXXXXXXXXXXXXXXXXXXXXXXXXXX"
};
