/* XPM */
static char *c64ecfa6ec814c99add6c25fa56b7bd5DaHb0KJszPXuz3yn[] = {
/* columns rows colors chars-per-pixel */
"60 60 4 1 ",
"  c None",
". c #676767",
"X c #FF9300",
"o c #FFE500",
/* pixels */

"                                                            ",
"                                                            ",
"                                                            ",
"                                                            ",
"                                                            ",
"                                                            ",
"                                                            ",
"                                                            ",
"                                                            ",
"                                                            ",
"                                                            ",
"                                                            ",
"                                                            ",
"                                                            ",
"                                                            ",
"                                                            ",
"                                                            ",
"                                                            ",
"                                                            ",
"                                                            ",
"                  XXXXXXXXXXXXXXXXXXXXXXXX                  ",
"                  XXXXXXXXXXXXXXXXXXXXXXXX                  ",
"                XXXXooooooooooooooooooooXXXX                ",
"                XXXXooooooooooooooooooooXXXX                ",
"              XXooooooooooooooooooooooooooXXXX              ",
"              XXooooooooooooooooooooooooooXXXX              ",
"            XXXXooooooooXXXXXXXXXXXXXXXXooooXXXX            ",
"            XXXXooooooooXXXXXXXXXXXXXXXXooooXXXX            ",
"          XXXXooooooXXXXXXXXXXXXXXXXXXXXooooooXXXX          ",
"          XXXXooooooXXXXXXXXXXXXXXXXXXXXooooooXXXX          ",
"          XXooooooooXXXXooooooooooooooooooooooooXX          ",
"          XXooooooooXXXXooooooooooooooooooooooooXX          ",
"          XXooooooXXXXooooooooooooooooooooooooooXX          ",
"          XXooooooXXXXooooooooooooooooooooooooooXX          ",
"          XXooooooXXXXooooooooooooooooooooooooooXX          ",
"          XXooooooXXXXooooooooooooooooooooooooooXX          ",
"          XXooooooXXXXooooooooooooooooooooooooooXX          ",
"          XXooooooXXXXooooooooooooooooooooooooooXX          ",
"          XXooooooXXXXooooooooooooooooooooooooooXX          ",
"          XXooooooXXXXooooooooooooooooooooooooooXX          ",
"          XXooooooXXXXooooooooooooooooooooooooooXX          ",
"          XXooooooXXXXooooooooooooooooooooooooooXX          ",
"          XXooooooXXXXXXooooooooooooooooooooooooXX          ",
"          XXooooooXXXXXXooooooooooooooooooooooooXX          ",
"          XXXXooooooXXXXXXXXooooooooooooooooooooXX          ",
"          XXXXooooooXXXXXXXXooooooooooooooooooooXX          ",
"            XXXXooooooXXXXXXXXXXXXXXXXXXooooXXXX            ",
"            XXXXooooooXXXXXXXXXXXXXXXXXXooooXXXX            ",
"              XXXXooooooooXXXXXXXXXXXXXXooXXXX              ",
"              XXXXooooooooXXXXXXXXXXXXXXooXXXX              ",
"            ....XXXXooooooooooooooooooooooXX....            ",
"            ....XXXXooooooooooooooooooooooXX....            ",
"          ........XXXXXXXXXXXXXXXXXXXXXXXX........          ",
"          ........XXXXXXXXXXXXXXXXXXXXXXXX........          ",
"            ....................................            ",
"            ....................................            ",
"                  ........................                  ",
"                  ........................                  ",
"                                                            "
"                                                            "
};
