/* XPM */
static char *c64ecfa6ec814c99add6c25fa56b7bd5DaHb0KJszPXuz3yn[] = {
/* columns rows colors chars-per-pixel */
"30 30 4 1 ",
"  c None",
". c #676767",
"X c #FF9300",
"o c #FFE500",
/* pixels */
"                              ",
"                              ",
"                              ",
"                              ",
"                              ",
"                              ",
"                              ",
"                              ",
"                              ",
"                              ",
"         XXXXXXXXXXXX         ",
"        XXooooooooooXX        ",
"       XoooooooooooooXX       ",
"      XXooooXXXXXXXXooXX      ",
"     XXoooXXXXXXXXXXoooXX     ",
"     XooooXXooooooooooooX     ",
"     XoooXXoooooooooooooX     ",
"     XoooXXoooooooooooooX     ",
"     XoooXXoooooooooooooX     ",
"     XoooXXoooooooooooooX     ",
"     XoooXXoooooooooooooX     ",
"     XoooXXXooooooooooooX     ",
"     XXoooXXXXooooooooooX     ",
"      XXoooXXXXXXXXXooXX      ",
"       XXooooXXXXXXXoXX       ",
"      ..XXoooooooooooX..      ",
"     ....XXXXXXXXXXXX....     ",
"      ..................      ",
"         ............         ",
"                              "
};
