/* XPM */
static char *aeda097db9434209f601f65ac20b4ca1PqCdoA37vVS4EwY9[] = {
/* columns rows colors chars-per-pixel */
"60 60 6 1 ",
"  c black",
". c gray11",
"X c #464646",
"o c #676767",
"O c #7E7E7E",
"+ c #2CFF26",
/* pixels */
"++++XXXXXXXXooOOooooXXXXXXXXXX....oooooooooo....XXXXXXoooooo",
"++++XXXXXXXXooOOooooXXXXXXXXXX....oooooooooo....XXXXXXoooooo",
"XX++XXXXXXXXXXXXOOOOooOOOOOO++++......oooo....++++oo++++oooo",
"XX++XXXXXXXXXXXXOOOOooOOOOOO++++......oooo....++++oo++++oooo",
"............ooXXOOOOooooOOOOOO++++XX........XX++++++++oooooo",
"............ooXXOOOOooooOOOOOO++++XX........XX++++++++oooooo",
"OOoooooo........++++++oo++++++++OOOO++++XXXX++OOOOoooooooooo",
"OOoooooo........++++++oo++++++++OOOO++++XXXX++OOOOoooooooooo",
"OOOOoooooo....++++++++++++  ++++++    ++  oo++++oooooooooooo",
"OOOOoooooo....++++++++++++  ++++++    ++  oo++++oooooooooooo",
"ooOOOOOOOOOO++++++++          ++++  ++++    oo++oooooooooooo",
"ooOOOOOOOOOO++++++++          ++++  ++++    oo++oooooooooooo",
"OOOOoooooo++++    ++++        ++++    ++++    ++ooooooooOOOO",
"OOOOoooooo++++    ++++        ++++    ++++    ++ooooooooOOOO",
"OOOOOOOOOO++oo    ++++      ++++      ++++    ++ooooOOOOOOXX",
"OOOOOOOOOO++oo    ++++      ++++      ++++    ++ooooOOOOOOXX",
"OO++++++++++      ++++        ++++    ++++  ++++OOOOOOOOOOXX",
"OO++++++++++      ++++        ++++    ++++  ++++OOOOOOOOOOXX",
"++++++++XXXX      ++++                  ++  ++  OOOOooXXXX..",
"++++++++XXXX      ++++                  ++  ++  OOOOooXXXX..",
"XX++XXXXXX                                  ++    XXXXXX....",
"XX++XXXXXX                                  ++    XXXXXX....",
"ooooooXXXX                                        XXXX..++OO",
"ooooooXXXX                                        XXXX..++OO",
"OOOOooXX..                                        ....++++OO",
"OOOOooXX..                                        ....++++OO",
"OOooXXXX..                                        ..OOOOoooo",
"OOooXXXX..                                        ..OOOOoooo",
"OOooXX....                                        OOOOoooooo",
"OOooXX....                                        OOOOoooooo",
"ooXXXX..oo                                        OOoooooooo",
"ooXXXX..oo                                        OOoooooooo",
"ooXX++++oo                                      OOOOOOoo++oo",
"ooXX++++oo                                      OOOOOOoo++oo",
"XXXX++..oo                                        OO++++oooo",
"XXXX++..oo                                        OO++++oooo",
"XX++++oooo                                        XXOOOOOOOO",
"XX++++oooo                                        XXOOOOOOOO",
"XX++..oooo                                        XXXXXXOOOO",
"XX++..oooo                                        XXXXXXOOOO",
"..++ooOOoo                                        ....XXXXXX",
"..++ooOOoo                                        ....XXXXXX",
"oo++OOOOoo                                        oo..++..XX",
"oo++OOOOoo                                        oo..++..XX",
"oo++OOXXXX                                        oooo++oooo",
"oo++OOXXXX                                        oooo++oooo",
"OOOOOOXXoo                                        oooo++oooo",
"OOOOOOXXoo                                        oooo++oooo",
"OOooXX....                                      OOOO++++oooo",
"OOooXX....                                      OOOO++++oooo",
"ooXXXX....                                        OO++OOOOoo",
"ooXXXX....                                        OO++OOOOoo",
"XXXX....XXXXXXXXXXXXOOooooooooooooOOOO..XXOOOOoo....OOOOOOOO",
"XXXX....XXXXXXXXXXXXOOooooooooooooOOOO..XXOOOOoo....OOOOOOOO",
"XXXX....XX++++++++OOooooooooOOoooo++++++++++XXOOOO........XX",
"XXXX....XX++++++++OOooooooooOOoooo++++++++++XXOOOO........XX",
"XX....ooXXXXooOOOOOOOOOOOOoooooo++++OOOO....XXXXOOOO......XX",
"XX....ooXXXXooOOOOOOOOOOOOoooooo++++OOOO....XXXXOOOO......XX",
"......XXOOOOooOOooooooooooooooooooooooOOOO....XXXXXXOOOO..XX",
"......XXOOOOooOOooooooooooooooooooooooOOOO....XXXXXXOOOO..XX"
};
