/* XPM */
static char *ec1044fdfaae428cd8cc5c3179ab73b3T0hr9Tu0K74IT0Y6[] = {
/* columns rows colors chars-per-pixel */
"60 60 3 1 ",
"  c None",
". c black",
"X c #FF6900",
/* pixels */
"                                                            ",
"                                                            ",
"                                                            ",
"                                                            ",
"                                                            ",
"                                                            ",
"                                                            ",
"                                                            ",
"                ............................                ",
"                ............................                ",
"              ....XXXXXXXXXXXXXXXXXXXXXXXX....              ",
"              ....XXXXXXXXXXXXXXXXXXXXXXXX....              ",
"            ....XXXXXXXXXXXXXXXXXXXXXXXXXXXX....            ",
"            ....XXXXXXXXXXXXXXXXXXXXXXXXXXXX....            ",
"            ..XXXXXXXXXXXXXXXXXXXXXXXXXXXXXXXX..            ",
"            ..XXXXXXXXXXXXXXXXXXXXXXXXXXXXXXXX..            ",
"          ....XXXXXXXXXXXXXXXXXXXXXXXXXXXXXXXX....          ",
"          ....XXXXXXXXXXXXXXXXXXXXXXXXXXXXXXXX....          ",
"          ..XXXXXXXXXXXXXXXXXXXXXXXXXXXXXXXXXXXX..          ",
"          ..XXXXXXXXXXXXXXXXXXXXXXXXXXXXXXXXXXXX..          ",
"          ..XXXXXXXXXXXXXXXXXXXXXXXXXXXXXXXXXXXX..          ",
"          ..XXXXXXXXXXXXXXXXXXXXXXXXXXXXXXXXXXXX..          ",
"        ....XXXXXXXXXXXXXXXXXXXXXXXXXXXXXXXXXXXX....        ",
"        ....XXXXXXXXXXXXXXXXXXXXXXXXXXXXXXXXXXXX....        ",
"        ..XXXXXXXXXXXXXXXXXXXXXXXXXXXXXXXXXXXXXXXX..        ",
"        ..XXXXXXXXXXXXXXXXXXXXXXXXXXXXXXXXXXXXXXXX..        ",
"        ..XXXXXXXXXXXXXXXXXXXXXXXXXXXXXXXXXXXXXXXX..        ",
"        ..XXXXXXXXXXXXXXXXXXXXXXXXXXXXXXXXXXXXXXXX..        ",
"        ..XXXXXXXXXXXXXXXXXXXXXXXXXXXXXXXXXXXXXXXX..        ",
"        ..XXXXXXXXXXXXXXXXXXXXXXXXXXXXXXXXXXXXXXXX..        ",
"        ..XXXXXXXXXXXXXXXXXXXXXXXXXXXXXXXXXXXXXXXX..        ",
"        ..XXXXXXXXXXXXXXXXXXXXXXXXXXXXXXXXXXXXXXXX..        ",
"        ....XXXXXXXXXXXXXXXXXXXXXXXXXXXXXXXXXXXX....        ",
"        ....XXXXXXXXXXXXXXXXXXXXXXXXXXXXXXXXXXXX....        ",
"          ......XXXXXXXXXXXXXXXXXXXXXXXXXXXX......          ",
"          ......XXXXXXXXXXXXXXXXXXXXXXXXXXXX......          ",
"        ....XX......XXXXXXXXXXXXXXXXXXXX......XX....        ",
"        ....XX......XXXXXXXXXXXXXXXXXXXX......XX....        ",
"    ......XXXXXXXX........................XXXXXXXX......    ",
"    ......XXXXXXXX........................XXXXXXXX......    ",
"  ....XXXXXXXXXXXXXXXXXXXXXXXXXXXXXXXXXXXXXXXXXXXXXXXX....  ",
"  ....XXXXXXXXXXXXXXXXXXXXXXXXXXXXXXXXXXXXXXXXXXXXXXXX....  ",
"....XXXXXXXXXXXXXX....XXXXXXXXXXXXXXXX....XXXXXXXXXXXXXX....",
"....XXXXXXXXXXXXXX....XXXXXXXXXXXXXXXX....XXXXXXXXXXXXXX....",
"..XXXXXXXXXX........XXXXXXXXXXXXXXXXXXXX........XXXXXXXXXX..",
"..XXXXXXXXXX........XXXXXXXXXXXXXXXXXXXX........XXXXXXXXXX..",
"..XXXXXXXX....  ..XXXXXXXXXXXXXXXXXXXXXXXX..  ....XXXXXXXX..",
"..XXXXXXXX....  ..XXXXXXXXXXXXXXXXXXXXXXXX..  ....XXXXXXXX..",
"............    ............................    ............",
"............    ............................    ............",
"                                                            ",
"                                                            ",
"                                                            ",
"                                                            ",
"                                                            ",
"                                                            ",
"                                                            ",
"                                                            ",
"                                                            ",
"                                                            "
};
