/* XPM */
static char *dd485adb2879435ff2cf38df9589e8fa3kls5lgj5ICS3Gh6[] = {
/* columns rows colors chars-per-pixel */
"60 60 4 1 ",
"  c None",
". c black",
"X c #FF6900",
"o c #FFF6F6",
/* pixels */
"                                                            ",
"                                                            ",
"                                                            ",
"                                                            ",
"                                                            ",
"                                                            ",
"                                                            ",
"                                                            ",
"                ............................                ",
"                ............................                ",
"              ....XXXXXXXXXXXXXXXXXXXXXXXX....              ",
"              ....XXXXXXXXXXXXXXXXXXXXXXXX....              ",
"            ....XXXXXXXXXXXXXXXXXXXXXXXXXXXX....            ",
"            ....XXXXXXXXXXXXXXXXXXXXXXXXXXXX....            ",
"            ..XXXXXXXXXXXXXXXXXXXXXXXXXXXXXXXX..            ",
"            ..XXXXXXXXXXXXXXXXXXXXXXXXXXXXXXXX..            ",
"          ....XXXXXXXXXXXXXXXXXXXXXXXXXXXXXXXX....          ",
"          ....XXXXXXXXXXXXXXXXXXXXXXXXXXXXXXXX....          ",
"          ..XXXXXXXXXXXXXXXXXXXXXX........XXXXXX..          ",
"          ..XXXXXXXXXXXXXXXXXXXXXX........XXXXXX..          ",
"          ..XXXXXXXXXXXXXXXXXXXXXX..oo....XXXXXX..          ",
"          ..XXXXXXXXXXXXXXXXXXXXXX..oo....XXXXXX..          ",
"        ....XXXXXXXXXXXXXXXXXXXXXX........XXXXXX....        ",
"        ....XXXXXXXXXXXXXXXXXXXXXX........XXXXXX....        ",
"        ..XXXXXXXXXXXXXXXXXXXXXXXX........XXXXXXXX..        ",
"        ..XXXXXXXXXXXXXXXXXXXXXXXX........XXXXXXXX..        ",
"        ..XXXXXXXXXXXXXXXXXXXXXXXXXX....XXXXXXXXXX..        ",
"        ..XXXXXXXXXXXXXXXXXXXXXXXXXX....XXXXXXXXXX..        ",
"        ..XXXXXXXXXXXXXXXXXXXXXXXXXXXXXXXXXXXXXXXX..        ",
"        ..XXXXXXXXXXXXXXXXXXXXXXXXXXXXXXXXXXXXXXXX..        ",
"        ..XXXXXXXXXXXXXXXXXXXXXXXXXXXXXX............        ",
"        ..XXXXXXXXXXXXXXXXXXXXXXXXXXXXXX............        ",
"        ....XXXXXXXXXXXXXXXXXXXXXXXXXXXX..XXXXXX....        ",
"        ....XXXXXXXXXXXXXXXXXXXXXXXXXXXX..XXXXXX....        ",
"          ......XXXXXXXXXXXXXXXXXXXXXXXXXXXX......          ",
"          ......XXXXXXXXXXXXXXXXXXXXXXXXXXXX......          ",
"        ....XX......XXXXXXXXXXXXXXXXXXXX......XX....        ",
"        ....XX......XXXXXXXXXXXXXXXXXXXX......XX....        ",
"    ......XXXXXXXX........................XXXXXXXX......    ",
"    ......XXXXXXXX........................XXXXXXXX......    ",
"  ....XXXXXXXXXXXXXXXXXXXXXXXXXXXXXXXXXXXXXXXXXXXXXXXX....  ",
"  ....XXXXXXXXXXXXXXXXXXXXXXXXXXXXXXXXXXXXXXXXXXXXXXXX....  ",
"....XXXXXXXXXXXXXX....XXXXXXXXXXXXXXXX....XXXXXXXXXXXXXX....",
"....XXXXXXXXXXXXXX....XXXXXXXXXXXXXXXX....XXXXXXXXXXXXXX....",
"..XXXXXXXXXX........XXXXXXXXXXXXXXXXXXXX........XXXXXXXXXX..",
"..XXXXXXXXXX........XXXXXXXXXXXXXXXXXXXX........XXXXXXXXXX..",
"..XXXXXXXX....  ..XXXXXXXXXXXXXXXXXXXXXXXX..  ....XXXXXXXX..",
"..XXXXXXXX....  ..XXXXXXXXXXXXXXXXXXXXXXXX..  ....XXXXXXXX..",
"............    ............................    ............",
"............    ............................    ............",
"                                                            ",
"                                                            ",
"                                                            ",
"                                                            ",
"                                                            ",
"                                                            ",
"                                                            ",
"                                                            ",
"                                                            ",
"                                                            "
};
