/* XPM */
static char *_1c9f2810da34dd7f79ea8b11f259e24LwcENoEhoxy55Sif[] = {
/* columns rows colors chars-per-pixel */
"60 60 3 1 ",
"  c None",
". c black",
"X c #FF6900",
/* pixels */
"                                                            ",
"                                                            ",
"                                                            ",
"                                                            ",
"                                                            ",
"                                                            ",
"                                                            ",
"                                                            ",
"                ............................                ",
"                ............................                ",
"              ....XXXXXXXXXXXXXXXXXXXXXXXX....              ",
"              ....XXXXXXXXXXXXXXXXXXXXXXXX....              ",
"            ....XXXXXXXXXXXXXXXXXXXXXXXXXXXX....            ",
"            ....XXXXXXXXXXXXXXXXXXXXXXXXXXXX....            ",
"            ..XXXXXXXXXXXXXXXXXXXXXXXXXXXXXXXX..            ",
"            ..XXXXXXXXXXXXXXXXXXXXXXXXXXXXXXXX..            ",
"          ....XXXXXXXXXXXXXXXXXXXXXXXXXXXXXXXX....          ",
"          ....XXXXXXXXXXXXXXXXXXXXXXXXXXXXXXXX....          ",
"          ..XXXXXX........XXXXXXXX........XXXXXX..          ",
"          ..XXXXXX........XXXXXXXX........XXXXXX..          ",
"          ..XXXXXX....  ..XXXXXXXX....  ..XXXXXX..          ",
"          ..XXXXXX....  ..XXXXXXXX....  ..XXXXXX..          ",
"        ....XXXXXX........XXXXXXXX........XXXXXX....        ",
"        ....XXXXXX........XXXXXXXX........XXXXXX....        ",
"        ..XXXXXXXX........XXXXXXXX........XXXXXXXX..        ",
"        ..XXXXXXXX........XXXXXXXX........XXXXXXXX..        ",
"        ..XXXXXXXXXX....XXXXXXXXXXXX....XXXXXXXXXX..        ",
"        ..XXXXXXXXXX....XXXXXXXXXXXX....XXXXXXXXXX..        ",
"        ..XXXXXXXXXXXXXXXXXXXXXXXXXXXXXXXXXXXXXXXX..        ",
"        ..XXXXXXXXXXXXXXXXXXXXXXXXXXXXXXXXXXXXXXXX..        ",
"        ..XXXXXXXXXXXXXXXXXXXXXXXXXXXXXXXXXXXXXXXX..        ",
"        ..XXXXXXXXXXXXXXXXXXXXXXXXXXXXXXXXXXXXXXXX..        ",
"        ....XXXXXXXXXXXX............XXXXXXXXXXXX....        ",
"        ....XXXXXXXXXXXX............XXXXXXXXXXXX....        ",
"          ......XXXXXXXX..XXXXXXXX..XXXXXXXX......          ",
"          ......XXXXXXXX..XXXXXXXX..XXXXXXXX......          ",
"              ......XXXXXXXXXXXXXXXXXXXX......              ",
"              ......XXXXXXXXXXXXXXXXXXXX......              ",
"            ....XX........................XX....            ",
"            ....XX........................XX....            ",
"          ....XXXXXXXXXXXXXXXXXXXXXXXXXXXXXXXX....          ",
"          ....XXXXXXXXXXXXXXXXXXXXXXXXXXXXXXXX....          ",
"        ....XXXXXXXXXXXX..XXXXXXXXXX..XXXXXXXXXX....        ",
"        ....XXXXXXXXXXXX..XXXXXXXXXX..XXXXXXXXXX....        ",
"      ....XXXXXXXXXXXXXX..XXXXXXXXXX..XXXXXXXXXXXX....      ",
"      ....XXXXXXXXXXXXXX..XXXXXXXXXX..XXXXXXXXXXXX....      ",
"      ..XXXXXXXXXXXXXX....XXXXXXXXXX....XXXXXXXXXXXX....    ",
"      ..XXXXXXXXXXXXXX....XXXXXXXXXX....XXXXXXXXXXXX....    ",
"      ..XXXXXXXXXXXXXX..XXXXXXXXXXXXXX..XXXXXXXXXXXXXX..    ",
"      ..XXXXXXXXXXXXXX..XXXXXXXXXXXXXX..XXXXXXXXXXXXXX..    ",
"      ..XXXXXXXXXXXX....XXXXXXXXXXXXXX....XXXXXXXXXXXX..    ",
"      ..XXXXXXXXXXXX....XXXXXXXXXXXXXX....XXXXXXXXXXXX..    ",
"      ..XXXXXXXXXX....XXXXXXXXXXXXXXXXXX....XXXXXXXXXX..    ",
"      ..XXXXXXXXXX....XXXXXXXXXXXXXXXXXX....XXXXXXXXXX..    ",
"      ....XXXXXX..  ....XXXXXXXXXXXXXX....  ..XXXXXX....    ",
"      ....XXXXXX..  ....XXXXXXXXXXXXXX....  ..XXXXXX....    ",
"        ..XXXX....    ....XXXXXXXXXX....    ....XXXX..      ",
"        ..XXXX....    ....XXXXXXXXXX....    ....XXXX..      ",
"        ........        ..............        ........      ",
"        ........        ..............        ........      "
};
