/* XPM */
static char *_aa01f82885940519b0fab3e13e1eb53NVABllqVdi2WmI4t[] = {
/* columns rows colors chars-per-pixel */
"60 60 3 1 ",
"  c None",
". c black",
"X c #FF6900",
/* pixels */
"                                                            ",
"                                                            ",
"                                                            ",
"                                                            ",
"                                                            ",
"                                                            ",
"                                                            ",
"                                                            ",
"                ............................                ",
"                ............................                ",
"              ....XXXXXXXXXXXXXXXXXXXXXXXX....              ",
"              ....XXXXXXXXXXXXXXXXXXXXXXXX....              ",
"            ....XXXXXXXXXXXXXXXXXXXXXXXXXXXX....            ",
"            ....XXXXXXXXXXXXXXXXXXXXXXXXXXXX....            ",
"            ..XXXXXXXXXXXXXXXXXXXXXXXXXXXXXXXX..            ",
"            ..XXXXXXXXXXXXXXXXXXXXXXXXXXXXXXXX..            ",
"          ....XXXXXXXXXXXXXXXXXXXXXXXXXXXXXXXX....          ",
"          ....XXXXXXXXXXXXXXXXXXXXXXXXXXXXXXXX....          ",
"          ..XXXXXXXXXXXXXXXXXXXXXXXXXXXXXXXXXXXX..          ",
"          ..XXXXXXXXXXXXXXXXXXXXXXXXXXXXXXXXXXXX..          ",
"          ..XXXXXXXXXXXXXXXXXXXXXXXXXXXXXXXXXXXX..          ",
"          ..XXXXXXXXXXXXXXXXXXXXXXXXXXXXXXXXXXXX..          ",
"        ....XXXXXXXXXXXXXXXXXXXXXXXXXXXXXXXXXXXX....        ",
"        ....XXXXXXXXXXXXXXXXXXXXXXXXXXXXXXXXXXXX....        ",
"        ..XXXXXXXXXXXXXXXXXXXXXXXXXXXXXXXXXXXXXXXX..        ",
"        ..XXXXXXXXXXXXXXXXXXXXXXXXXXXXXXXXXXXXXXXX..        ",
"        ..XXXXXXXXXXXXXXXXXXXXXXXXXXXXXXXXXXXXXXXX..        ",
"        ..XXXXXXXXXXXXXXXXXXXXXXXXXXXXXXXXXXXXXXXX..        ",
"        ..XXXXXXXXXXXXXXXXXXXXXXXXXXXXXXXXXXXXXXXX..        ",
"        ..XXXXXXXXXXXXXXXXXXXXXXXXXXXXXXXXXXXXXXXX..        ",
"        ..XXXXXXXXXXXXXXXXXXXXXXXXXXXXXXXXXXXXXXXX..        ",
"        ..XXXXXXXXXXXXXXXXXXXXXXXXXXXXXXXXXXXXXXXX..        ",
"        ....XXXXXXXXXXXXXXXXXXXXXXXXXXXXXXXXXXXX....        ",
"        ....XXXXXXXXXXXXXXXXXXXXXXXXXXXXXXXXXXXX....        ",
"          ......XXXXXXXXXXXXXXXXXXXXXXXXXXXX......          ",
"          ......XXXXXXXXXXXXXXXXXXXXXXXXXXXX......          ",
"              ......XXXXXXXXXXXXXXXXXXXX......              ",
"              ......XXXXXXXXXXXXXXXXXXXX......              ",
"            ....XX........................XX....            ",
"            ....XX........................XX....            ",
"          ....XXXXXXXXXXXXXXXXXXXXXXXXXXXXXXXX....          ",
"          ....XXXXXXXXXXXXXXXXXXXXXXXXXXXXXXXX....          ",
"        ....XXXXXXXXXXXX..XXXXXXXXXX..XXXXXXXXXX....        ",
"        ....XXXXXXXXXXXX..XXXXXXXXXX..XXXXXXXXXX....        ",
"      ....XXXXXXXXXXXXXX..XXXXXXXXXX..XXXXXXXXXXXX....      ",
"      ....XXXXXXXXXXXXXX..XXXXXXXXXX..XXXXXXXXXXXX....      ",
"      ..XXXXXXXXXXXXXX....XXXXXXXXXX....XXXXXXXXXXXX....    ",
"      ..XXXXXXXXXXXXXX....XXXXXXXXXX....XXXXXXXXXXXX....    ",
"      ..XXXXXXXXXXXXXX..XXXXXXXXXXXXXX..XXXXXXXXXXXXXX..    ",
"      ..XXXXXXXXXXXXXX..XXXXXXXXXXXXXX..XXXXXXXXXXXXXX..    ",
"      ..XXXXXXXXXXXX....XXXXXXXXXXXXXX....XXXXXXXXXXXX..    ",
"      ..XXXXXXXXXXXX....XXXXXXXXXXXXXX....XXXXXXXXXXXX..    ",
"      ..XXXXXXXXXX....XXXXXXXXXXXXXXXXXX....XXXXXXXXXX..    ",
"      ..XXXXXXXXXX....XXXXXXXXXXXXXXXXXX....XXXXXXXXXX..    ",
"      ....XXXXXX..  ....XXXXXXXXXXXXXX....  ..XXXXXX....    ",
"      ....XXXXXX..  ....XXXXXXXXXXXXXX....  ..XXXXXX....    ",
"        ..XXXX....    ....XXXXXXXXXX....    ....XXXX..      ",
"        ..XXXX....    ....XXXXXXXXXX....    ....XXXX..      ",
"        ........        ..............        ........      ",
"        ........        ..............        ........      "
};
