/* XPM */
static char *_42a8aa2f00248e3f128a7e86f3e5db8qDgZcXzQtxVvuq9i[] = {
/* columns rows colors chars-per-pixel */
"60 60 4 1 ",
"  c None",
". c black",
"X c #FF6900",
"o c white",
/* pixels */
"                                                            ",
"                                                            ",
"                                                            ",
"                                                            ",
"                                                            ",
"                                                            ",
"                                                            ",
"                                                            ",
"                ............................                ",
"                ............................                ",
"              ....XXXXXXXXXXXXXXXXXXXXXXXX....              ",
"              ....XXXXXXXXXXXXXXXXXXXXXXXX....              ",
"            ....XXXXXXXXXXXXXXXXXXXXXXXXXXXX....            ",
"            ....XXXXXXXXXXXXXXXXXXXXXXXXXXXX....            ",
"            ..XXXXXXXXXXXXXXXXXXXXXXXXXXXXXXXX..            ",
"            ..XXXXXXXXXXXXXXXXXXXXXXXXXXXXXXXX..            ",
"          ....XXXXXXXXXXXXXXXXXXXXXXXXXXXXXXXX....          ",
"          ....XXXXXXXXXXXXXXXXXXXXXXXXXXXXXXXX....          ",
"          ..XXXXXX........XXXXXXXXXXXXXXXXXXXXXX..          ",
"          ..XXXXXX........XXXXXXXXXXXXXXXXXXXXXX..          ",
"          ..XXXXXX....oo..XXXXXXXXXXXXXXXXXXXXXX..          ",
"          ..XXXXXX....oo..XXXXXXXXXXXXXXXXXXXXXX..          ",
"        ....XXXXXX........XXXXXXXXXXXXXXXXXXXXXX....        ",
"        ....XXXXXX........XXXXXXXXXXXXXXXXXXXXXX....        ",
"        ..XXXXXXXX........XXXXXXXXXXXXXXXXXXXXXXXX..        ",
"        ..XXXXXXXX........XXXXXXXXXXXXXXXXXXXXXXXX..        ",
"        ..XXXXXXXXXX....XXXXXXXXXXXXXXXXXXXXXXXXXX..        ",
"        ..XXXXXXXXXX....XXXXXXXXXXXXXXXXXXXXXXXXXX..        ",
"        ..XXXXXXXXXXXXXXXXXXXXXXXXXXXXXXXXXXXXXXXX..        ",
"        ..XXXXXXXXXXXXXXXXXXXXXXXXXXXXXXXXXXXXXXXX..        ",
"        ............XXXXXXXXXXXXXXXXXXXXXXXXXXXXXX..        ",
"        ............XXXXXXXXXXXXXXXXXXXXXXXXXXXXXX..        ",
"        ....XXXXXX..XXXXXXXXXXXXXXXXXXXXXXXXXXXX....        ",
"        ....XXXXXX..XXXXXXXXXXXXXXXXXXXXXXXXXXXX....        ",
"          ......XXXXXXXXXXXXXXXXXXXXXXXXXXXX......          ",
"          ......XXXXXXXXXXXXXXXXXXXXXXXXXXXX......          ",
"        ....XX......XXXXXXXXXXXXXXXXXXXX......XX....        ",
"        ....XX......XXXXXXXXXXXXXXXXXXXX......XX....        ",
"    ......XXXXXXXX........................XXXXXXXX......    ",
"    ......XXXXXXXX........................XXXXXXXX......    ",
"  ....XXXXXXXXXXXXXXXXXXXXXXXXXXXXXXXXXXXXXXXXXXXXXXXX....  ",
"  ....XXXXXXXXXXXXXXXXXXXXXXXXXXXXXXXXXXXXXXXXXXXXXXXX....  ",
"....XXXXXXXXXXXXXX....XXXXXXXXXXXXXXXX....XXXXXXXXXXXXXX....",
"....XXXXXXXXXXXXXX....XXXXXXXXXXXXXXXX....XXXXXXXXXXXXXX....",
"..XXXXXXXXXX........XXXXXXXXXXXXXXXXXXXX........XXXXXXXXXX..",
"..XXXXXXXXXX........XXXXXXXXXXXXXXXXXXXX........XXXXXXXXXX..",
"..XXXXXXXX....  ..XXXXXXXXXXXXXXXXXXXXXXXX..  ....XXXXXXXX..",
"..XXXXXXXX....  ..XXXXXXXXXXXXXXXXXXXXXXXX..  ....XXXXXXXX..",
"............    ............................    ............",
"............    ............................    ............",
"                                                            ",
"                                                            ",
"                                                            ",
"                                                            ",
"                                                            ",
"                                                            ",
"                                                            ",
"                                                            ",
"                                                            ",
"                                                            "
};
