/* XPM */
static char *result[] = {
/* columns rows colors chars-per-piXXel */
"60 60 3 1 ",
"  c black",
". c white",
"X c None",
/* pixels */
"XXXXXXXXXXXXXXXXXXXXXXXXXXXXXXXXXXXXXXXXXXXXXXXXXXXXXXXXXXXX",
"XXXXXXXXXXXXXXXXXXXXXXXXXXXXXXXXXXXXXXXXXXXXXXXXXXXXXXXXXXXX",
"XXXXXXXXXXXXXXXXXXXXXXXXXXXXXXXXXX                  XXXXXXXX",
"XXXXXXXXXXXXXXXXXXXXXXXXXXXXXXXXXX                  XXXXXXXX",
"XXXXXXXXXXXXXXXXXXXXXXXXXXXXXXXX    ..............    XXXXXX",
"XXXXXXXXXXXXXXXXXXXXXXXXXXXXXXXX    ..............    XXXXXX",
"XXXXXXXXXXXXXXXXXXXXXXXXXXXXXX    ..................    XXXX",
"XXXXXXXXXXXXXXXXXXXXXXXXXXXXXX    ..................    XXXX",
"XXXXXXXXXXXXXXXXXXXXXXXXXXXXXX  ......................  XXXX",
"XXXXXXXXXXXXXXXXXXXXXXXXXXXXXX  ......................  XXXX",
"XXXXXXXXXXXXXXXXXXXXXXXXXXXXXX  ....    ......    ....  XXXX",
"XXXXXXXXXXXXXXXXXXXXXXXXXXXXXX  ....    ......    ....  XXXX",
"XXXXXXXXXXXXXXXXXXXXXXXXXXXXXX  ....    ......    ....  XXXX",
"XXXXXXXXXXXXXXXXXXXXXXXXXXXXXX  ....    ......    ....  XXXX",
"XXXXXXXXXXXXXXXXXXXXXXXXXXXXXX  ......................  XXXX",
"XXXXXXXXXXXXXXXXXXXXXXXXXXXXXX  ......................  XXXX",
"XXXXXXXXXXXXXXXXXXXXXXXXXXXXXX    ..................    XXXX",
"XXXXXXXXXXXXXXXXXXXXXXXXXXXXXX    ..................    XXXX",
"XXXXXXXXXXXXXXXXXXXXXXXXXXXXXXXX    ..............    XXXXXX",
"XXXXXXXXXXXXXXXXXXXXXXXXXXXXXXXX    ..............    XXXXXX",
"XXXXXXXXXXXXXXXXXXXXXXXXXXXXXXXXXX    ..........    XXXXXXXX",
"XXXXXXXXXXXXXXXXXXXXXXXXXXXXXXXXXX    ..........    XXXXXXXX",
"XXXXXXXXXXXXXXXXXXXXXXXXXXXXXXXXXXXX  ..  ..  ..  XXXXXXXXXX",
"XXXXXXXXXXXXXXXXXXXXXXXXXXXXXXXXXXXX  ..  ..  ..  XXXXXXXXXX",
"XXXXXXXXXXXXXXXXXXXXXXXXXXXXXXXXXXXX  ..  ..  ..  XXXXXXXXXX",
"XXXXXXXXXXXXXXXXXXXXXXXXXXXXXXXXXXXX  ..  ..  ..  XXXXXXXXXX",
"XXXXXXXXXXXXXXXXXXXXXXXXXXXXXXXXXXXX              XXXXXXXXXX",
"XXXXXXXXXXXXXXXXXXXXXXXXXXXXXXXXXXXX              XXXXXXXXXX",
"XXXXXXXXXXXXXXXXXXXXXXXXXXXXXXXXXXXXXXXXXXXXXXXXXXXXXXXXXXXX",
"XXXXXXXXXXXXXXXXXXXXXXXXXXXXXXXXXXXXXXXXXXXXXXXXXXXXXXXXXXXX",
"XXXXXXXXXXXXXXXXXXXXXXXXXXXXXXXXXXXXXXXXXXXXXXXXXXXXXXXXXXXX",
"XXXXXXXXXXXXXXXXXXXXXXXXXXXXXXXXXXXXXXXXXXXXXXXXXXXXXXXXXXXX",
"XXXXXXXXXXXXXXXXXXXXXXXXXXXXXXXXXXXXXXXXXXXXXXXXXXXXXXXXXXXX",
"XXXXXXXXXXXXXXXXXXXXXXXXXXXXXXXXXXXXXXXXXXXXXXXXXXXXXXXXXXXX",
"XXXXXXXXXXXXXXXXXXXXXXXXXXXXXXXXXXXXXXXXXXXXXXXXXXXXXXXXXXXX",
"XXXXXXXXXXXXXXXXXXXXXXXXXXXXXXXXXXXXXXXXXXXXXXXXXXXXXXXXXXXX",
"XXXXXXXXXXXX                                    XXXXXXXXXXXX",
"XXXXXXXXXXXX                                    XXXXXXXXXXXX",
"XXXXXXXXXX                                        XXXXXXXXXX",
"XXXXXXXXXX                                        XXXXXXXXXX",
"XXXXXXXX                                            XXXXXXXX",
"XXXXXXXX                                            XXXXXXXX",
"XXXXXX                                                XXXXXX",
"XXXXXX                                                XXXXXX",
"XXXX            ....                    ....            XXXX",
"XXXX            ....                    ....            XXXX",
"XXXX            ....                    ....            XXXX",
"XXXX            ....                    ....            XXXX",
"XXXX        ............            ............        XXXX",
"XXXX        ............            ............        XXXX",
"XXXX        ............            ............        XXXX",
"XXXX        ............            ............        XXXX",
"XXXX            ....                    ....            XXXX",
"XXXX            ....                    ....            XXXX",
"XXXXXXXX        ....                    ....        XXXXXXXX",
"XXXXXXXX        ....                    ....        XXXXXXXX",
"XXXXXXXXXX                                        XXXXXXXXXX",
"XXXXXXXXXX                                        XXXXXXXXXX",
"XXXXXXXXXXXXXXXXXXXXXXXXXXXXXXXXXXXXXXXXXXXXXXXXXXXXXXXXXXXX",
"XXXXXXXXXXXXXXXXXXXXXXXXXXXXXXXXXXXXXXXXXXXXXXXXXXXXXXXXXXXX"
};
