/* XPM */
static char *_3ead6ba9f0f48b1ed4c703bdbb28bd8bSnBZZT7KLeiepg1[] = {
/* columns rows colors chars-per-piXXel */
"60 60 3 1 ",
"  c None",
". c black",
"X c  #FF6900",
/* piXXels */
"                                                            ",
"                                                            ",
"                                                            ",
"                                                            ",
"                                                            ",
"                                                            ",
"                                                            ",
"                                                            ",
"                ............................                ",
"                ............................                ",
"              ....XXXXXXXXXXXXXXXXXXXXXXXX....              ",
"              ....XXXXXXXXXXXXXXXXXXXXXXXX....              ",
"            ....XXXXXXXXXXXXXXXXXXXXXXXXXXXX....            ",
"            ....XXXXXXXXXXXXXXXXXXXXXXXXXXXX....            ",
"            ..XXXXXXXXXXXXXXXXXXXXXXXXXXXXXXXX..            ",
"            ..XXXXXXXXXXXXXXXXXXXXXXXXXXXXXXXX..            ",
"          ....XXXXXXXXXXXXXXXXXXXXXXXXXXXXXXXX....          ",
"          ....XXXXXXXXXXXXXXXXXXXXXXXXXXXXXXXX....          ",
"          ..XXXXXX........XXXXXXXX........XXXXXX..          ",
"          ..XXXXXX........XXXXXXXX........XXXXXX..          ",
"          ..XXXXXX....  ..XXXXXXXX....  ..XXXXXX..          ",
"          ..XXXXXX....  ..XXXXXXXX....  ..XXXXXX..          ",
"        ....XXXXXX........XXXXXXXX........XXXXXX....        ",
"        ....XXXXXX........XXXXXXXX........XXXXXX....        ",
"        ..XXXXXXXX........XXXXXXXX........XXXXXXXX..        ",
"        ..XXXXXXXX........XXXXXXXX........XXXXXXXX..        ",
"        ..XXXXXXXXXX....XXXXXXXXXXXX....XXXXXXXXXX..        ",
"        ..XXXXXXXXXX....XXXXXXXXXXXX....XXXXXXXXXX..        ",
"        ..XXXXXXXXXXXXXXXXXXXXXXXXXXXXXXXXXXXXXXXX..        ",
"        ..XXXXXXXXXXXXXXXXXXXXXXXXXXXXXXXXXXXXXXXX..        ",
"        ..XXXXXXXXXXXXXXXXXXXXXXXXXXXXXXXXXXXXXXXX..        ",
"        ..XXXXXXXXXXXXXXXXXXXXXXXXXXXXXXXXXXXXXXXX..        ",
"        ....XXXXXXXXXXXX............XXXXXXXXXXXX....        ",
"        ....XXXXXXXXXXXX............XXXXXXXXXXXX....        ",
"          ......XXXXXXXX..XXXXXXXX..XXXXXXXX......          ",
"          ......XXXXXXXX..XXXXXXXX..XXXXXXXX......          ",
"        ....XX......XXXXXXXXXXXXXXXXXXXX......XX....        ",
"        ....XX......XXXXXXXXXXXXXXXXXXXX......XX....        ",
"    ......XXXXXXXX........................XXXXXXXX......    ",
"    ......XXXXXXXX........................XXXXXXXX......    ",
"  ....XXXXXXXXXXXXXXXXXXXXXXXXXXXXXXXXXXXXXXXXXXXXXXXX....  ",
"  ....XXXXXXXXXXXXXXXXXXXXXXXXXXXXXXXXXXXXXXXXXXXXXXXX....  ",
"....XXXXXXXXXXXXXX....XXXXXXXXXXXXXXXX....XXXXXXXXXXXXXX....",
"....XXXXXXXXXXXXXX....XXXXXXXXXXXXXXXX....XXXXXXXXXXXXXX....",
"..XXXXXXXXXX........XXXXXXXXXXXXXXXXXXXX........XXXXXXXXXX..",
"..XXXXXXXXXX........XXXXXXXXXXXXXXXXXXXX........XXXXXXXXXX..",
"..XXXXXXXX....  ..XXXXXXXXXXXXXXXXXXXXXXXX..  ....XXXXXXXX..",
"..XXXXXXXX....  ..XXXXXXXXXXXXXXXXXXXXXXXX..  ....XXXXXXXX..",
"............    ............................    ............",
"............    ............................    ............",
"                                                            ",
"                                                            ",
"                                                            ",
"                                                            ",
"                                                            ",
"                                                            ",
"                                                            ",
"                                                            ",
"                                                            ",
"                                                            "
};
