/* XPM */
static char *_d1793b459354414a2b46ce396438c4735n5xN07Ld0LCL0E[] = {
/* columns rows colors chars-per-pixel */
"60 60 4 1 ",
"  c None",
". c black",
"X c #FF6900",
"o c #FFF6F6",
/* pixels */
"                                                            ",
"                                                            ",
"                                                            ",
"                                                            ",
"                                                            ",
"                                                            ",
"                                                            ",
"                                                            ",
"                ............................                ",
"                ............................                ",
"              ....XXXXXXXXXXXXXXXXXXXXXXXX....              ",
"              ....XXXXXXXXXXXXXXXXXXXXXXXX....              ",
"            ....XXXXXXXXXXXXXXXXXXXXXXXXXXXX....            ",
"            ....XXXXXXXXXXXXXXXXXXXXXXXXXXXX....            ",
"            ..XXXXXXXXXXXXXXXXXXXXXXXXXXXXXXXX..            ",
"            ..XXXXXXXXXXXXXXXXXXXXXXXXXXXXXXXX..            ",
"          ....XXXXXXXXXXXXXXXXXXXXXXXXXXXXXXXX....          ",
"          ....XXXXXXXXXXXXXXXXXXXXXXXXXXXXXXXX....          ",
"          ..XXXXXXXXXXXXXXXXXXXXXX........XXXXXX..          ",
"          ..XXXXXXXXXXXXXXXXXXXXXX........XXXXXX..          ",
"          ..XXXXXXXXXXXXXXXXXXXXXX..oo....XXXXXX..          ",
"          ..XXXXXXXXXXXXXXXXXXXXXX..oo....XXXXXX..          ",
"        ....XXXXXXXXXXXXXXXXXXXXXX........XXXXXX....        ",
"        ....XXXXXXXXXXXXXXXXXXXXXX........XXXXXX....        ",
"        ..XXXXXXXXXXXXXXXXXXXXXXXX........XXXXXXXX..        ",
"        ..XXXXXXXXXXXXXXXXXXXXXXXX........XXXXXXXX..        ",
"        ..XXXXXXXXXXXXXXXXXXXXXXXXXX....XXXXXXXXXX..        ",
"        ..XXXXXXXXXXXXXXXXXXXXXXXXXX....XXXXXXXXXX..        ",
"        ..XXXXXXXXXXXXXXXXXXXXXXXXXXXXXXXXXXXXXXXX..        ",
"        ..XXXXXXXXXXXXXXXXXXXXXXXXXXXXXXXXXXXXXXXX..        ",
"        ..XXXXXXXXXXXXXXXXXXXXXXXXXXXXXX............        ",
"        ..XXXXXXXXXXXXXXXXXXXXXXXXXXXXXX............        ",
"        ....XXXXXXXXXXXXXXXXXXXXXXXXXXXX..XXXXXX....        ",
"        ....XXXXXXXXXXXXXXXXXXXXXXXXXXXX..XXXXXX....        ",
"          ......XXXXXXXXXXXXXXXXXXXXXXXXXXXX......          ",
"          ......XXXXXXXXXXXXXXXXXXXXXXXXXXXX......          ",
"              ......XXXXXXXXXXXXXXXXXXXX......              ",
"              ......XXXXXXXXXXXXXXXXXXXX......              ",
"            ....XX........................XX....            ",
"            ....XX........................XX....            ",
"          ....XXXXXXXXXXXXXXXXXXXXXXXXXXXXXXXX....          ",
"          ....XXXXXXXXXXXXXXXXXXXXXXXXXXXXXXXX....          ",
"        ....XXXXXXXXXXXX..XXXXXXXXXX..XXXXXXXXXX....        ",
"        ....XXXXXXXXXXXX..XXXXXXXXXX..XXXXXXXXXX....        ",
"      ....XXXXXXXXXXXXXX..XXXXXXXXXX..XXXXXXXXXXXX....      ",
"      ....XXXXXXXXXXXXXX..XXXXXXXXXX..XXXXXXXXXXXX....      ",
"      ..XXXXXXXXXXXXXX....XXXXXXXXXX....XXXXXXXXXXXX....    ",
"      ..XXXXXXXXXXXXXX....XXXXXXXXXX....XXXXXXXXXXXX....    ",
"      ..XXXXXXXXXXXXXX..XXXXXXXXXXXXXX..XXXXXXXXXXXXXX..    ",
"      ..XXXXXXXXXXXXXX..XXXXXXXXXXXXXX..XXXXXXXXXXXXXX..    ",
"      ..XXXXXXXXXXXX....XXXXXXXXXXXXXX....XXXXXXXXXXXX..    ",
"      ..XXXXXXXXXXXX....XXXXXXXXXXXXXX....XXXXXXXXXXXX..    ",
"      ..XXXXXXXXXX....XXXXXXXXXXXXXXXXXX....XXXXXXXXXX..    ",
"      ..XXXXXXXXXX....XXXXXXXXXXXXXXXXXX....XXXXXXXXXX..    ",
"      ....XXXXXX..  ....XXXXXXXXXXXXXX....  ..XXXXXX....    ",
"      ....XXXXXX..  ....XXXXXXXXXXXXXX....  ..XXXXXX....    ",
"        ..XXXX....    ....XXXXXXXXXX....    ....XXXX..      ",
"        ..XXXX....    ....XXXXXXXXXX....    ....XXXX..      ",
"        ........        ..............        ........      ",
"        ........        ..............        ........      "
};
