/* XPM */
static char *_d1793b459354414a2b46ce396438c4735n5xN07Ld0LCL0E[] = {
/* columns rows colors chars-per-pixel */
"30 30 4 1 ",
"  c None",
". c black",
"X c #FF6900",
"o c #FFF6F6",
/* pixels */
"                              ",
"                              ",
"                              ",
"                              ",
"        ..............        ",
"       ..XXXXXXXXXXXX..       ",
"      ..XXXXXXXXXXXXXX..      ",
"      .XXXXXXXXXXXXXXXX.      ",
"     ..XXXXXXXXXXXXXXXX..     ",
"     .XXXXXXXXXXX....XXX.     ",
"     .XXXXXXXXXXX.o..XXX.     ",
"    ..XXXXXXXXXXX....XXX..    ",
"    .XXXXXXXXXXXX....XXXX.    ",
"    .XXXXXXXXXXXXX..XXXXX.    ",
"    .XXXXXXXXXXXXXXXXXXXX.    ",
"    .XXXXXXXXXXXXXXX......    ",
"    ..XXXXXXXXXXXXXX.XXX..    ",
"     ...XXXXXXXXXXXXXX...     ",
"       ...XXXXXXXXXX...       ",
"      ..X............X..      ",
"     ..XXXXXXXXXXXXXXXX..     ",
"    ..XXXXXX.XXXXX.XXXXX..    ",
"   ..XXXXXXX.XXXXX.XXXXXX..   ",
"   .XXXXXXX..XXXXX..XXXXXX..  ",
"   .XXXXXXX.XXXXXXX.XXXXXXX.  ",
"   .XXXXXX..XXXXXXX..XXXXXX.  ",
"   .XXXXX..XXXXXXXXX..XXXXX.  ",
"   ..XXX. ..XXXXXXX.. .XXX..  ",
"    .XX..  ..XXXXX..  ..XX.   ",
"    ....    .......    ....   "
};
