/* XPM */
static char *f615b3403bac4dd1a5b04c8fbe8777efqjcm55jG2qSbJfHh[] = {
/* columns rows colors chars-per-pixel */
"60 60 4 1 ",
"  c None",
". c black",
"X c #FF6900",
"o c white",
/* pixels */
"                                                            ",
"                                                            ",
"                                                            ",
"                                                            ",
"                                                            ",
"                                                            ",
"                                                            ",
"                                                            ",
"                ............................                ",
"                ............................                ",
"              ....XXXXXXXXXXXXXXXXXXXXXXXX....              ",
"              ....XXXXXXXXXXXXXXXXXXXXXXXX....              ",
"            ....XXXXXXXXXXXXXXXXXXXXXXXXXXXX....            ",
"            ....XXXXXXXXXXXXXXXXXXXXXXXXXXXX....            ",
"            ..XXXXXXXXXXXXXXXXXXXXXXXXXXXXXXXX..            ",
"            ..XXXXXXXXXXXXXXXXXXXXXXXXXXXXXXXX..            ",
"          ....XXXXXXXXXXXXXXXXXXXXXXXXXXXXXXXX....          ",
"          ....XXXXXXXXXXXXXXXXXXXXXXXXXXXXXXXX....          ",
"          ..XXXXXX........XXXXXXXXXXXXXXXXXXXXXX..          ",
"          ..XXXXXX........XXXXXXXXXXXXXXXXXXXXXX..          ",
"          ..XXXXXX....oo..XXXXXXXXXXXXXXXXXXXXXX..          ",
"          ..XXXXXX....oo..XXXXXXXXXXXXXXXXXXXXXX..          ",
"        ....XXXXXX........XXXXXXXXXXXXXXXXXXXXXX....        ",
"        ....XXXXXX........XXXXXXXXXXXXXXXXXXXXXX....        ",
"        ..XXXXXXXX........XXXXXXXXXXXXXXXXXXXXXXXX..        ",
"        ..XXXXXXXX........XXXXXXXXXXXXXXXXXXXXXXXX..        ",
"        ..XXXXXXXXXX....XXXXXXXXXXXXXXXXXXXXXXXXXX..        ",
"        ..XXXXXXXXXX....XXXXXXXXXXXXXXXXXXXXXXXXXX..        ",
"        ..XXXXXXXXXXXXXXXXXXXXXXXXXXXXXXXXXXXXXXXX..        ",
"        ..XXXXXXXXXXXXXXXXXXXXXXXXXXXXXXXXXXXXXXXX..        ",
"        ............XXXXXXXXXXXXXXXXXXXXXXXXXXXXXX..        ",
"        ............XXXXXXXXXXXXXXXXXXXXXXXXXXXXXX..        ",
"        ....XXXXXX..XXXXXXXXXXXXXXXXXXXXXXXXXXXX....        ",
"        ....XXXXXX..XXXXXXXXXXXXXXXXXXXXXXXXXXXX....        ",
"          ......XXXXXXXXXXXXXXXXXXXXXXXXXXXX......          ",
"          ......XXXXXXXXXXXXXXXXXXXXXXXXXXXX......          ",
"              ......XXXXXXXXXXXXXXXXXXXX......              ",
"              ......XXXXXXXXXXXXXXXXXXXX......              ",
"            ....XX........................XX....            ",
"            ....XX........................XX....            ",
"          ....XXXXXXXXXXXXXXXXXXXXXXXXXXXXXXXX....          ",
"          ....XXXXXXXXXXXXXXXXXXXXXXXXXXXXXXXX....          ",
"        ....XXXXXXXXXXXX..XXXXXXXXXX..XXXXXXXXXX....        ",
"        ....XXXXXXXXXXXX..XXXXXXXXXX..XXXXXXXXXX....        ",
"      ....XXXXXXXXXXXXXX..XXXXXXXXXX..XXXXXXXXXXXX....      ",
"      ....XXXXXXXXXXXXXX..XXXXXXXXXX..XXXXXXXXXXXX....      ",
"      ..XXXXXXXXXXXXXX....XXXXXXXXXX....XXXXXXXXXXXX....    ",
"      ..XXXXXXXXXXXXXX....XXXXXXXXXX....XXXXXXXXXXXX....    ",
"      ..XXXXXXXXXXXXXX..XXXXXXXXXXXXXX..XXXXXXXXXXXXXX..    ",
"      ..XXXXXXXXXXXXXX..XXXXXXXXXXXXXX..XXXXXXXXXXXXXX..    ",
"      ..XXXXXXXXXXXX....XXXXXXXXXXXXXX....XXXXXXXXXXXX..    ",
"      ..XXXXXXXXXXXX....XXXXXXXXXXXXXX....XXXXXXXXXXXX..    ",
"      ..XXXXXXXXXX....XXXXXXXXXXXXXXXXXX....XXXXXXXXXX..    ",
"      ..XXXXXXXXXX....XXXXXXXXXXXXXXXXXX....XXXXXXXXXX..    ",
"      ....XXXXXX..  ....XXXXXXXXXXXXXX....  ..XXXXXX....    ",
"      ....XXXXXX..  ....XXXXXXXXXXXXXX....  ..XXXXXX....    ",
"        ..XXXX....    ....XXXXXXXXXX....    ....XXXX..      ",
"        ..XXXX....    ....XXXXXXXXXX....    ....XXXX..      ",
"        ........        ..............        ........      ",
"        ........        ..............        ........      "
};
