/* XPM */
static char *bfa1a40e4e1741ae9a1ab4de44c4484dZ9LqdZ7z6Ax0Wc0n[] = {
/* columns rows colors chars-per-pixel */
"60 60 5 1 ",
"  c gray33",
". c gray38",
"X c gray54",
"o c gray69",
"O c gray81",
/* pixels */
"XXXXXXXXXXXXXX  oooo  XXXX    XXXXXXXXXXXXXX  XXXX  XXXXXXXX",
"XXXXXXXXXXXXXX  oooo  XXXX    XXXXXXXXXXXXXX  XXXX  XXXXXXXX",
"  ooooooooooooooooooooooooooooooooooooooooooooooooooXXXX  XX",
"  ooooooooooooooooooooooooooooooooooooooooooooooooooXXXX  XX",
"  ooXXooooooooooooooooooooooooooooooooooooooooooooooooXXXXXX",
"  ooXXooooooooooooooooooooooooooooooooooooooooooooooooXXXXXX",
"  oo  ooooooooooooooooooooooooooooooooooooooOOOOOOooooooXXXX",
"  oo  ooooooooooooooooooooooooooooooooooooooOOOOOOooooooXXXX",
"  oo  ooooooooooooooooooooooooooooooooooOOOOOO..OOOOOOOOOO  ",
"  oo  ooooooooooooooooooooooooooooooooooOOOOOO..OOOOOOOOOO  ",
"XXooooooooooooooooooooooooooooooooooooOOOO..............OO  ",
"XXooooooooooooooooooooooooooooooooooooOOOO..............OO  ",
"XXOOooooooooooooooooooooooooooooooooOOOOOO....oooo......oo  ",
"XXOOooooooooooooooooooooooooooooooooOOOOOO....oooo......oo  ",
"  OOOOooooooooooooooooooooooooooooooOOOO....oooooooo........",
"  OOOOooooooooooooooooooooooooooooooOOOO....oooooooo........",
"  OOOOOOooooooooooooooooooooooooooOOOO....oooooooooooooooo..",
"  OOOOOOooooooooooooooooooooooooooOOOO....oooooooooooooooo..",
"....OOOOOOooooooooooooooooooooooOOOO....oooooooooooooooooo  ",
"....OOOOOOooooooooooooooooooooooOOOO....oooooooooooooooooo  ",
"  ......OOOOOOOOOOOOOOOOooooooooOOOO....ooooooooooooooooooXX",
"  ......OOOOOOOOOOOOOOOOooooooooOOOO....ooooooooooooooooooXX",
"XXoo......OOOOOO....OOOOooooooooOO....ooooooooooooooooooooXX",
"XXoo......OOOOOO....OOOOooooooooOO....ooooooooooooooooooooXX",
"XXoooo....OOOO......OOOOOOooOOOOOO....oooooooooooooooooooooo",
"XXoooo....OOOO......OOOOOOooOOOOOO....oooooooooooooooooooooo",
"XXoooooo................OOOOOOOO....oooooooooooooooooooooooo",
"XXoooooo................OOOOOOOO....oooooooooooooooooooooooo",
"XXoooooo......oooooo......OOOO....oooooooooooooooooooooooo  ",
"XXoooooo......oooooo......OOOO....oooooooooooooooooooooooo  ",
"XXoooooooo....oooooooo......OO..oooooooooooooooooooooooooo  ",
"XXoooooooo....oooooooo......OO..oooooooooooooooooooooooooo  ",
"XXoooooo....OOOOoooooo..........oooooooooooooooooooooooooo  ",
"XXoooooo....OOOOoooooo..........oooooooooooooooooooooooooo  ",
"XXoooooo....OOoooooooooooo......oooooooooooooooooooooooooooo",
"XXoooooo....OOoooooooooooo......oooooooooooooooooooooooooooo",
"XXoooo....OOOOoooooooooooooooo....OOOOoooooooooooooooooooooo",
"XXoooo....OOOOoooooooooooooooo....OOOOoooooooooooooooooooooo",
"  oooo....OOOOoooooooooooooooooo....OOOOOOooooooooooooooooXX",
"  oooo....OOOOoooooooooooooooooo....OOOOOOooooooooooooooooXX",
"oooooo..OOOOoooooooooooooooooooooo....OOOOoooooooooooooooo  ",
"oooooo..OOOOoooooooooooooooooooooo....OOOOoooooooooooooooo  ",
"ooXX....OOOOoooooooooooooooooooooooooo..OOOOoooooooooooooooo",
"ooXX....OOOOoooooooooooooooooooooooooo..OOOOoooooooooooooooo",
"ooXX....OOoooooooooooooooooooooooooooooo..OOOOoooooooooooooo",
"ooXX....OOoooooooooooooooooooooooooooooo..OOOOoooooooooooooo",
"ooXX..OOOOooooooooooooooooooooXXooXXoooooo..OOOOOOoooooooo  ",
"ooXX..OOOOooooooooooooooooooooXXooXXoooooo..OOOOOOoooooooo  ",
"oo....OOOOooooooooooooooooXXooooXXoo  ooooooOOOOOOOOoooooo  ",
"oo....OOOOooooooooooooooooXXooooXXoo  ooooooOOOOOOOOoooooo  ",
"oo....OOOOOOooXXXXooooooooooooooooooooooooooXXXXOOOOoooooo  ",
"oo....OOOOOOooXXXXooooooooooooooooooooooooooXXXXOOOOoooooo  ",
"oo....OOOOOOoooooooo    XXooXXooooXXooooooooooooooooooXX  oo",
"oo....OOOOOOoooooooo    XXooXXooooXXooooooooooooooooooXX  oo",
"....XXOOOOOOOOooooXXXX    oooo  oooo  XXooooooooXXooXXXX    ",
"....XXOOOOOOOOooooXXXX    oooo  oooo  XXooooooooXXooXXXX    ",
"oooooo  OOOOOOOOOOOOOOOO  XXoo  XXXXooXXXXooooooooooooXX    ",
"oooooo  OOOOOOOOOOOOOOOO  XXoo  XXXXooXXXXooooooooooooXX    ",
"  oooooo  XXooOOOOOOooXXXXXXXXooXXXXXXooXXXXooXXoooooooo    ",
"  oooooo  XXooOOOOOOooXXXXXXXXooXXXXXXooXXXXooXXoooooooo    "
};
