/* XPM */
static char *bfa1a40e4e1741ae9a1ab4de44c4484dZ9LqdZ7z6Ax0Wc0n[] = {
/* columns rows colors chars-per-pixel */
"30 30 5 1 ",
"  c gray33",
". c gray38",
"X c gray54",
"o c gray69",
"O c gray81",
/* pixels */
"XXXXXXX oo XX  XXXXXXX XX XXXX",
" oooooooooooooooooooooooooXX X",
" oXooooooooooooooooooooooooXXX",
" o oooooooooooooooooooOOOoooXX",
" o oooooooooooooooooOOO.OOOOO ",
"XooooooooooooooooooOO.......O ",
"XOooooooooooooooooOOO..oo...o ",
" OOoooooooooooooooOO..oooo....",
" OOOoooooooooooooOO..oooooooo.",
"..OOOoooooooooooOO..ooooooooo ",
" ...OOOOOOOOooooOO..oooooooooX",
"Xo...OOO..OOooooO..ooooooooooX",
"Xoo..OO...OOOoOOO..ooooooooooo",
"Xooo........OOOO..oooooooooooo",
"Xooo...ooo...OO..oooooooooooo ",
"Xoooo..oooo...O.ooooooooooooo ",
"Xooo..OOooo.....ooooooooooooo ",
"Xooo..Ooooooo...oooooooooooooo",
"Xoo..OOoooooooo..OOooooooooooo",
" oo..OOooooooooo..OOOooooooooX",
"ooo.OOooooooooooo..OOoooooooo ",
"oX..OOooooooooooooo.OOoooooooo",
"oX..Oooooooooooooooo.OOooooooo",
"oX.OOooooooooooXoXooo.OOOoooo ",
"o..OOooooooooXooXo oooOOOOooo ",
"o..OOOoXXoooooooooooooXXOOooo ",
"o..OOOoooo  XoXooXoooooooooX o",
"..XOOOOooXX  oo oo XooooXoXX  ",
"ooo OOOOOOOO Xo XXoXXooooooX  ",
" ooo XoOOOoXXXXoXXXoXXoXoooo  "
};
